<mxfile host="app.diagrams.net" modified="2024-04-22T05:47:59.665Z" agent="Mozilla/5.0 (Windows NT 10.0; Win64; x64) AppleWebKit/537.36 (KHTML, like Gecko) Chrome/123.0.0.0 Safari/537.36" etag="g_lTscFNnGoW22YiRqeF" version="24.0.2" type="github">
  <diagram name="第 1 页" id="7uZExEkXiBQ7jMDRv1GM">
    <mxGraphModel dx="1136" dy="585" grid="1" gridSize="10" guides="1" tooltips="1" connect="1" arrows="1" fold="1" page="1" pageScale="1" pageWidth="827" pageHeight="1169" math="0" shadow="0">
      <root>
        <mxCell id="0" />
        <mxCell id="1" parent="0" />
        <mxCell id="pHUdqWg6jOGEU-mfkc_0-13" style="edgeStyle=orthogonalEdgeStyle;rounded=0;orthogonalLoop=1;jettySize=auto;html=1;" edge="1" parent="1" source="pHUdqWg6jOGEU-mfkc_0-6">
          <mxGeometry relative="1" as="geometry">
            <mxPoint x="260" y="330" as="targetPoint" />
          </mxGeometry>
        </mxCell>
        <mxCell id="pHUdqWg6jOGEU-mfkc_0-6" value="前端多个flume采集" style="rounded=0;whiteSpace=wrap;html=1;" vertex="1" parent="1">
          <mxGeometry x="30" y="300" width="120" height="60" as="geometry" />
        </mxCell>
        <mxCell id="pHUdqWg6jOGEU-mfkc_0-11" style="edgeStyle=orthogonalEdgeStyle;rounded=0;orthogonalLoop=1;jettySize=auto;html=1;entryX=0;entryY=0.5;entryDx=0;entryDy=0;" edge="1" parent="1" source="pHUdqWg6jOGEU-mfkc_0-7" target="pHUdqWg6jOGEU-mfkc_0-10">
          <mxGeometry relative="1" as="geometry" />
        </mxCell>
        <mxCell id="pHUdqWg6jOGEU-mfkc_0-7" value="" style="shape=cylinder3;whiteSpace=wrap;html=1;boundedLbl=1;backgroundOutline=1;size=15;rotation=90;" vertex="1" parent="1">
          <mxGeometry x="414" y="250" width="60" height="160" as="geometry" />
        </mxCell>
        <mxCell id="pHUdqWg6jOGEU-mfkc_0-9" style="edgeStyle=orthogonalEdgeStyle;rounded=0;orthogonalLoop=1;jettySize=auto;html=1;" edge="1" parent="1" source="pHUdqWg6jOGEU-mfkc_0-8">
          <mxGeometry relative="1" as="geometry">
            <mxPoint x="360" y="330" as="targetPoint" />
          </mxGeometry>
        </mxCell>
        <mxCell id="pHUdqWg6jOGEU-mfkc_0-8" value="avro source" style="rounded=0;whiteSpace=wrap;html=1;" vertex="1" parent="1">
          <mxGeometry x="280" y="300" width="50" height="60" as="geometry" />
        </mxCell>
        <mxCell id="pHUdqWg6jOGEU-mfkc_0-10" value="8个kafkasink" style="rounded=0;whiteSpace=wrap;html=1;" vertex="1" parent="1">
          <mxGeometry x="560" y="300" width="60" height="60" as="geometry" />
        </mxCell>
        <mxCell id="pHUdqWg6jOGEU-mfkc_0-12" value="file channel" style="text;html=1;align=center;verticalAlign=middle;resizable=0;points=[];autosize=1;strokeColor=none;fillColor=none;" vertex="1" parent="1">
          <mxGeometry x="394" y="315" width="80" height="30" as="geometry" />
        </mxCell>
        <mxCell id="pHUdqWg6jOGEU-mfkc_0-14" value="增强型SSD云盘" style="text;html=1;align=center;verticalAlign=middle;resizable=0;points=[];autosize=1;strokeColor=none;fillColor=none;" vertex="1" parent="1">
          <mxGeometry x="389" y="360" width="110" height="30" as="geometry" />
        </mxCell>
        <mxCell id="pHUdqWg6jOGEU-mfkc_0-15" style="edgeStyle=orthogonalEdgeStyle;rounded=0;orthogonalLoop=1;jettySize=auto;html=1;" edge="1" parent="1" source="pHUdqWg6jOGEU-mfkc_0-16">
          <mxGeometry relative="1" as="geometry">
            <mxPoint x="260" y="470" as="targetPoint" />
          </mxGeometry>
        </mxCell>
        <mxCell id="pHUdqWg6jOGEU-mfkc_0-16" value="前端多个flume采集" style="rounded=0;whiteSpace=wrap;html=1;" vertex="1" parent="1">
          <mxGeometry x="30" y="440" width="120" height="60" as="geometry" />
        </mxCell>
        <mxCell id="pHUdqWg6jOGEU-mfkc_0-18" value="" style="shape=cylinder3;whiteSpace=wrap;html=1;boundedLbl=1;backgroundOutline=1;size=15;rotation=90;" vertex="1" parent="1">
          <mxGeometry x="414" y="390" width="60" height="160" as="geometry" />
        </mxCell>
        <mxCell id="pHUdqWg6jOGEU-mfkc_0-19" style="edgeStyle=orthogonalEdgeStyle;rounded=0;orthogonalLoop=1;jettySize=auto;html=1;" edge="1" parent="1" source="pHUdqWg6jOGEU-mfkc_0-20">
          <mxGeometry relative="1" as="geometry">
            <mxPoint x="360" y="470" as="targetPoint" />
          </mxGeometry>
        </mxCell>
        <mxCell id="pHUdqWg6jOGEU-mfkc_0-20" value="avro source" style="rounded=0;whiteSpace=wrap;html=1;" vertex="1" parent="1">
          <mxGeometry x="280" y="440" width="50" height="60" as="geometry" />
        </mxCell>
        <mxCell id="pHUdqWg6jOGEU-mfkc_0-22" value="kafka channel" style="text;html=1;align=center;verticalAlign=middle;resizable=0;points=[];autosize=1;strokeColor=none;fillColor=none;" vertex="1" parent="1">
          <mxGeometry x="384" y="455" width="100" height="30" as="geometry" />
        </mxCell>
        <mxCell id="pHUdqWg6jOGEU-mfkc_0-25" value="file" style="rounded=0;whiteSpace=wrap;html=1;" vertex="1" parent="1">
          <mxGeometry x="70" y="750" width="30" height="30" as="geometry" />
        </mxCell>
        <mxCell id="pHUdqWg6jOGEU-mfkc_0-29" style="edgeStyle=orthogonalEdgeStyle;rounded=0;orthogonalLoop=1;jettySize=auto;html=1;exitX=1;exitY=0;exitDx=0;exitDy=0;entryX=0;entryY=0.5;entryDx=0;entryDy=0;" edge="1" parent="1" source="pHUdqWg6jOGEU-mfkc_0-26" target="pHUdqWg6jOGEU-mfkc_0-27">
          <mxGeometry relative="1" as="geometry" />
        </mxCell>
        <mxCell id="pHUdqWg6jOGEU-mfkc_0-26" value="file" style="rounded=0;whiteSpace=wrap;html=1;" vertex="1" parent="1">
          <mxGeometry x="70" y="780" width="30" height="30" as="geometry" />
        </mxCell>
        <mxCell id="pHUdqWg6jOGEU-mfkc_0-30" style="edgeStyle=orthogonalEdgeStyle;rounded=0;orthogonalLoop=1;jettySize=auto;html=1;" edge="1" parent="1" source="pHUdqWg6jOGEU-mfkc_0-27">
          <mxGeometry relative="1" as="geometry">
            <mxPoint x="210" y="780" as="targetPoint" />
          </mxGeometry>
        </mxCell>
        <mxCell id="pHUdqWg6jOGEU-mfkc_0-27" value="file chl" style="rounded=0;whiteSpace=wrap;html=1;" vertex="1" parent="1">
          <mxGeometry x="130" y="760" width="50" height="40" as="geometry" />
        </mxCell>
        <mxCell id="pHUdqWg6jOGEU-mfkc_0-31" value="6sink" style="rounded=0;whiteSpace=wrap;html=1;" vertex="1" parent="1">
          <mxGeometry x="210" y="760" width="60" height="40" as="geometry" />
        </mxCell>
        <mxCell id="pHUdqWg6jOGEU-mfkc_0-32" value="file" style="rounded=0;whiteSpace=wrap;html=1;" vertex="1" parent="1">
          <mxGeometry x="80" y="760" width="30" height="30" as="geometry" />
        </mxCell>
        <mxCell id="pHUdqWg6jOGEU-mfkc_0-33" style="edgeStyle=orthogonalEdgeStyle;rounded=0;orthogonalLoop=1;jettySize=auto;html=1;exitX=1;exitY=0;exitDx=0;exitDy=0;entryX=0;entryY=0.5;entryDx=0;entryDy=0;" edge="1" parent="1" source="pHUdqWg6jOGEU-mfkc_0-34" target="pHUdqWg6jOGEU-mfkc_0-36">
          <mxGeometry relative="1" as="geometry" />
        </mxCell>
        <mxCell id="pHUdqWg6jOGEU-mfkc_0-34" value="file" style="rounded=0;whiteSpace=wrap;html=1;" vertex="1" parent="1">
          <mxGeometry x="80" y="790" width="30" height="30" as="geometry" />
        </mxCell>
        <mxCell id="pHUdqWg6jOGEU-mfkc_0-35" style="edgeStyle=orthogonalEdgeStyle;rounded=0;orthogonalLoop=1;jettySize=auto;html=1;" edge="1" parent="1" source="pHUdqWg6jOGEU-mfkc_0-36">
          <mxGeometry relative="1" as="geometry">
            <mxPoint x="220" y="790" as="targetPoint" />
          </mxGeometry>
        </mxCell>
        <mxCell id="pHUdqWg6jOGEU-mfkc_0-36" value="file chl" style="rounded=0;whiteSpace=wrap;html=1;" vertex="1" parent="1">
          <mxGeometry x="140" y="770" width="50" height="40" as="geometry" />
        </mxCell>
        <mxCell id="pHUdqWg6jOGEU-mfkc_0-37" value="6sink" style="rounded=0;whiteSpace=wrap;html=1;" vertex="1" parent="1">
          <mxGeometry x="220" y="770" width="60" height="40" as="geometry" />
        </mxCell>
        <mxCell id="pHUdqWg6jOGEU-mfkc_0-38" value="file" style="rounded=0;whiteSpace=wrap;html=1;" vertex="1" parent="1">
          <mxGeometry x="90" y="770" width="30" height="30" as="geometry" />
        </mxCell>
        <mxCell id="pHUdqWg6jOGEU-mfkc_0-39" style="edgeStyle=orthogonalEdgeStyle;rounded=0;orthogonalLoop=1;jettySize=auto;html=1;exitX=1;exitY=0;exitDx=0;exitDy=0;entryX=0;entryY=0.5;entryDx=0;entryDy=0;" edge="1" parent="1" source="pHUdqWg6jOGEU-mfkc_0-40" target="pHUdqWg6jOGEU-mfkc_0-42">
          <mxGeometry relative="1" as="geometry" />
        </mxCell>
        <mxCell id="pHUdqWg6jOGEU-mfkc_0-40" value="file" style="rounded=0;whiteSpace=wrap;html=1;" vertex="1" parent="1">
          <mxGeometry x="90" y="800" width="30" height="30" as="geometry" />
        </mxCell>
        <mxCell id="pHUdqWg6jOGEU-mfkc_0-41" style="edgeStyle=orthogonalEdgeStyle;rounded=0;orthogonalLoop=1;jettySize=auto;html=1;" edge="1" parent="1" source="pHUdqWg6jOGEU-mfkc_0-42">
          <mxGeometry relative="1" as="geometry">
            <mxPoint x="230" y="800" as="targetPoint" />
          </mxGeometry>
        </mxCell>
        <mxCell id="pHUdqWg6jOGEU-mfkc_0-42" value="file chl" style="rounded=0;whiteSpace=wrap;html=1;" vertex="1" parent="1">
          <mxGeometry x="150" y="780" width="50" height="40" as="geometry" />
        </mxCell>
        <mxCell id="pHUdqWg6jOGEU-mfkc_0-53" style="edgeStyle=orthogonalEdgeStyle;rounded=0;orthogonalLoop=1;jettySize=auto;html=1;" edge="1" parent="1" source="pHUdqWg6jOGEU-mfkc_0-43">
          <mxGeometry relative="1" as="geometry">
            <mxPoint x="330" y="800" as="targetPoint" />
          </mxGeometry>
        </mxCell>
        <mxCell id="pHUdqWg6jOGEU-mfkc_0-43" value="&lt;font color=&quot;#ff3333&quot;&gt;18sink&lt;/font&gt;" style="rounded=0;whiteSpace=wrap;html=1;" vertex="1" parent="1">
          <mxGeometry x="230" y="780" width="60" height="40" as="geometry" />
        </mxCell>
        <mxCell id="pHUdqWg6jOGEU-mfkc_0-44" value="" style="endArrow=none;dashed=1;html=1;rounded=0;" edge="1" parent="1">
          <mxGeometry width="50" height="50" relative="1" as="geometry">
            <mxPoint x="310" y="905" as="sourcePoint" />
            <mxPoint x="310" y="675" as="targetPoint" />
          </mxGeometry>
        </mxCell>
        <mxCell id="pHUdqWg6jOGEU-mfkc_0-81" style="edgeStyle=orthogonalEdgeStyle;rounded=0;orthogonalLoop=1;jettySize=auto;html=1;entryX=0;entryY=0.5;entryDx=0;entryDy=0;" edge="1" parent="1" source="pHUdqWg6jOGEU-mfkc_0-82" target="pHUdqWg6jOGEU-mfkc_0-85">
          <mxGeometry relative="1" as="geometry" />
        </mxCell>
        <mxCell id="pHUdqWg6jOGEU-mfkc_0-82" value="" style="shape=cylinder3;whiteSpace=wrap;html=1;boundedLbl=1;backgroundOutline=1;size=15;rotation=90;" vertex="1" parent="1">
          <mxGeometry x="474" y="715" width="60" height="160" as="geometry" />
        </mxCell>
        <mxCell id="pHUdqWg6jOGEU-mfkc_0-83" style="edgeStyle=orthogonalEdgeStyle;rounded=0;orthogonalLoop=1;jettySize=auto;html=1;" edge="1" parent="1" source="pHUdqWg6jOGEU-mfkc_0-84">
          <mxGeometry relative="1" as="geometry">
            <mxPoint x="420" y="795" as="targetPoint" />
          </mxGeometry>
        </mxCell>
        <mxCell id="pHUdqWg6jOGEU-mfkc_0-84" value="avro source" style="rounded=0;whiteSpace=wrap;html=1;" vertex="1" parent="1">
          <mxGeometry x="340" y="765" width="50" height="60" as="geometry" />
        </mxCell>
        <mxCell id="pHUdqWg6jOGEU-mfkc_0-85" value="8个kafkasink" style="rounded=0;whiteSpace=wrap;html=1;" vertex="1" parent="1">
          <mxGeometry x="620" y="765" width="60" height="60" as="geometry" />
        </mxCell>
        <mxCell id="pHUdqWg6jOGEU-mfkc_0-86" value="file channel" style="text;html=1;align=center;verticalAlign=middle;resizable=0;points=[];autosize=1;strokeColor=none;fillColor=none;" vertex="1" parent="1">
          <mxGeometry x="454" y="780" width="80" height="30" as="geometry" />
        </mxCell>
        <mxCell id="pHUdqWg6jOGEU-mfkc_0-87" value="增强型SSD云盘" style="text;html=1;align=center;verticalAlign=middle;resizable=0;points=[];autosize=1;strokeColor=none;fillColor=none;" vertex="1" parent="1">
          <mxGeometry x="449" y="825" width="110" height="30" as="geometry" />
        </mxCell>
        <mxCell id="pHUdqWg6jOGEU-mfkc_0-88" value="" style="shape=cylinder3;whiteSpace=wrap;html=1;boundedLbl=1;backgroundOutline=1;size=15;rotation=90;" vertex="1" parent="1">
          <mxGeometry x="476" y="840" width="60" height="160" as="geometry" />
        </mxCell>
        <mxCell id="pHUdqWg6jOGEU-mfkc_0-89" style="edgeStyle=orthogonalEdgeStyle;rounded=0;orthogonalLoop=1;jettySize=auto;html=1;" edge="1" parent="1" source="pHUdqWg6jOGEU-mfkc_0-90">
          <mxGeometry relative="1" as="geometry">
            <mxPoint x="422" y="920" as="targetPoint" />
          </mxGeometry>
        </mxCell>
        <mxCell id="pHUdqWg6jOGEU-mfkc_0-90" value="avro source" style="rounded=0;whiteSpace=wrap;html=1;" vertex="1" parent="1">
          <mxGeometry x="342" y="890" width="50" height="60" as="geometry" />
        </mxCell>
        <mxCell id="pHUdqWg6jOGEU-mfkc_0-91" value="kafka channel" style="text;html=1;align=center;verticalAlign=middle;resizable=0;points=[];autosize=1;strokeColor=none;fillColor=none;" vertex="1" parent="1">
          <mxGeometry x="446" y="905" width="100" height="30" as="geometry" />
        </mxCell>
        <mxCell id="pHUdqWg6jOGEU-mfkc_0-92" value="file" style="rounded=0;whiteSpace=wrap;html=1;" vertex="1" parent="1">
          <mxGeometry x="70" y="875" width="30" height="30" as="geometry" />
        </mxCell>
        <mxCell id="pHUdqWg6jOGEU-mfkc_0-93" style="edgeStyle=orthogonalEdgeStyle;rounded=0;orthogonalLoop=1;jettySize=auto;html=1;exitX=1;exitY=0;exitDx=0;exitDy=0;entryX=0;entryY=0.5;entryDx=0;entryDy=0;" edge="1" parent="1" source="pHUdqWg6jOGEU-mfkc_0-94" target="pHUdqWg6jOGEU-mfkc_0-96">
          <mxGeometry relative="1" as="geometry" />
        </mxCell>
        <mxCell id="pHUdqWg6jOGEU-mfkc_0-94" value="file" style="rounded=0;whiteSpace=wrap;html=1;" vertex="1" parent="1">
          <mxGeometry x="70" y="905" width="30" height="30" as="geometry" />
        </mxCell>
        <mxCell id="pHUdqWg6jOGEU-mfkc_0-95" style="edgeStyle=orthogonalEdgeStyle;rounded=0;orthogonalLoop=1;jettySize=auto;html=1;" edge="1" parent="1" source="pHUdqWg6jOGEU-mfkc_0-96">
          <mxGeometry relative="1" as="geometry">
            <mxPoint x="210" y="905" as="targetPoint" />
          </mxGeometry>
        </mxCell>
        <mxCell id="pHUdqWg6jOGEU-mfkc_0-96" value="file chl" style="rounded=0;whiteSpace=wrap;html=1;" vertex="1" parent="1">
          <mxGeometry x="130" y="885" width="50" height="40" as="geometry" />
        </mxCell>
        <mxCell id="pHUdqWg6jOGEU-mfkc_0-97" value="6sink" style="rounded=0;whiteSpace=wrap;html=1;" vertex="1" parent="1">
          <mxGeometry x="210" y="885" width="60" height="40" as="geometry" />
        </mxCell>
        <mxCell id="pHUdqWg6jOGEU-mfkc_0-98" value="file" style="rounded=0;whiteSpace=wrap;html=1;" vertex="1" parent="1">
          <mxGeometry x="80" y="885" width="30" height="30" as="geometry" />
        </mxCell>
        <mxCell id="pHUdqWg6jOGEU-mfkc_0-99" style="edgeStyle=orthogonalEdgeStyle;rounded=0;orthogonalLoop=1;jettySize=auto;html=1;exitX=1;exitY=0;exitDx=0;exitDy=0;entryX=0;entryY=0.5;entryDx=0;entryDy=0;" edge="1" parent="1" source="pHUdqWg6jOGEU-mfkc_0-100" target="pHUdqWg6jOGEU-mfkc_0-102">
          <mxGeometry relative="1" as="geometry" />
        </mxCell>
        <mxCell id="pHUdqWg6jOGEU-mfkc_0-100" value="file" style="rounded=0;whiteSpace=wrap;html=1;" vertex="1" parent="1">
          <mxGeometry x="80" y="915" width="30" height="30" as="geometry" />
        </mxCell>
        <mxCell id="pHUdqWg6jOGEU-mfkc_0-101" style="edgeStyle=orthogonalEdgeStyle;rounded=0;orthogonalLoop=1;jettySize=auto;html=1;" edge="1" parent="1" source="pHUdqWg6jOGEU-mfkc_0-102">
          <mxGeometry relative="1" as="geometry">
            <mxPoint x="220" y="915" as="targetPoint" />
          </mxGeometry>
        </mxCell>
        <mxCell id="pHUdqWg6jOGEU-mfkc_0-102" value="file chl" style="rounded=0;whiteSpace=wrap;html=1;" vertex="1" parent="1">
          <mxGeometry x="140" y="895" width="50" height="40" as="geometry" />
        </mxCell>
        <mxCell id="pHUdqWg6jOGEU-mfkc_0-103" value="6sink" style="rounded=0;whiteSpace=wrap;html=1;" vertex="1" parent="1">
          <mxGeometry x="220" y="895" width="60" height="40" as="geometry" />
        </mxCell>
        <mxCell id="pHUdqWg6jOGEU-mfkc_0-104" value="file" style="rounded=0;whiteSpace=wrap;html=1;" vertex="1" parent="1">
          <mxGeometry x="90" y="895" width="30" height="30" as="geometry" />
        </mxCell>
        <mxCell id="pHUdqWg6jOGEU-mfkc_0-105" style="edgeStyle=orthogonalEdgeStyle;rounded=0;orthogonalLoop=1;jettySize=auto;html=1;exitX=1;exitY=0;exitDx=0;exitDy=0;entryX=0;entryY=0.5;entryDx=0;entryDy=0;" edge="1" parent="1" source="pHUdqWg6jOGEU-mfkc_0-106" target="pHUdqWg6jOGEU-mfkc_0-108">
          <mxGeometry relative="1" as="geometry" />
        </mxCell>
        <mxCell id="pHUdqWg6jOGEU-mfkc_0-106" value="file" style="rounded=0;whiteSpace=wrap;html=1;" vertex="1" parent="1">
          <mxGeometry x="90" y="925" width="30" height="30" as="geometry" />
        </mxCell>
        <mxCell id="pHUdqWg6jOGEU-mfkc_0-107" style="edgeStyle=orthogonalEdgeStyle;rounded=0;orthogonalLoop=1;jettySize=auto;html=1;" edge="1" parent="1" source="pHUdqWg6jOGEU-mfkc_0-108">
          <mxGeometry relative="1" as="geometry">
            <mxPoint x="230" y="925" as="targetPoint" />
          </mxGeometry>
        </mxCell>
        <mxCell id="pHUdqWg6jOGEU-mfkc_0-108" value="file chl" style="rounded=0;whiteSpace=wrap;html=1;" vertex="1" parent="1">
          <mxGeometry x="150" y="905" width="50" height="40" as="geometry" />
        </mxCell>
        <mxCell id="pHUdqWg6jOGEU-mfkc_0-109" style="edgeStyle=orthogonalEdgeStyle;rounded=0;orthogonalLoop=1;jettySize=auto;html=1;" edge="1" parent="1" source="pHUdqWg6jOGEU-mfkc_0-110">
          <mxGeometry relative="1" as="geometry">
            <mxPoint x="330" y="925" as="targetPoint" />
          </mxGeometry>
        </mxCell>
        <mxCell id="pHUdqWg6jOGEU-mfkc_0-110" value="&lt;font color=&quot;#ff3333&quot;&gt;18sink&lt;/font&gt;" style="rounded=0;whiteSpace=wrap;html=1;" vertex="1" parent="1">
          <mxGeometry x="230" y="905" width="60" height="40" as="geometry" />
        </mxCell>
        <mxCell id="pHUdqWg6jOGEU-mfkc_0-111" value="" style="endArrow=none;dashed=1;html=1;rounded=0;" edge="1" parent="1">
          <mxGeometry width="50" height="50" relative="1" as="geometry">
            <mxPoint x="310" y="1030" as="sourcePoint" />
            <mxPoint x="310" y="800" as="targetPoint" />
          </mxGeometry>
        </mxCell>
      </root>
    </mxGraphModel>
  </diagram>
</mxfile>
